G04*
G04 #@! TF.GenerationSoftware,Altium Limited,Altium Designer,23.10.1 (27)*
G04*
G04 Layer_Color=32896*
%FSLAX44Y44*%
%MOMM*%
G71*
G04*
G04 #@! TF.SameCoordinates,4CE9EA45-4993-4C82-AD02-D2FF3EB750FC*
G04*
G04*
G04 #@! TF.FilePolarity,Positive*
G04*
G01*
G75*
%ADD10C,0.2000*%
%ADD11C,0.2540*%
%ADD12R,1.6000X0.4000*%
D10*
X177000Y31000D02*
Y65000D01*
X193000D01*
Y31000D02*
Y65000D01*
X177000Y31000D02*
X193000D01*
X196000Y122000D02*
Y158000D01*
X174000Y122000D02*
X196000D01*
X174000D02*
Y158000D01*
X196000D01*
D11*
X192696Y167383D02*
Y182617D01*
X185078D01*
X182539Y180078D01*
Y175000D01*
X185078Y172461D01*
X192696D01*
X187617D02*
X182539Y167383D01*
X167304D02*
X177461D01*
X167304Y177539D01*
Y180078D01*
X169843Y182617D01*
X174922D01*
X177461Y180078D01*
X192696Y22617D02*
Y7383D01*
X185078D01*
X182539Y9922D01*
Y20078D01*
X185078Y22617D01*
X192696D01*
X167304Y7383D02*
X177461D01*
X167304Y17539D01*
Y20078D01*
X169843Y22617D01*
X174922D01*
X177461Y20078D01*
D12*
X185000Y33001D02*
D03*
M02*
