G04*
G04 #@! TF.GenerationSoftware,Altium Limited,Altium Designer,23.10.1 (27)*
G04*
G04 Layer_Color=65535*
%FSLAX44Y44*%
%MOMM*%
G71*
G04*
G04 #@! TF.SameCoordinates,4CE9EA45-4993-4C82-AD02-D2FF3EB750FC*
G04*
G04*
G04 #@! TF.FilePolarity,Positive*
G04*
G01*
G75*
%ADD10C,0.2000*%
%ADD11C,0.2540*%
%ADD12R,1.6000X0.4000*%
D10*
X37000Y41000D02*
X53000D01*
X37000D02*
Y75000D01*
X53000D01*
Y41000D02*
Y75000D01*
X174210Y76900D02*
Y127700D01*
X115790Y76900D02*
X174210D01*
X115790D02*
Y127700D01*
X174210D01*
X115790Y115000D02*
X131030D01*
Y89600D02*
Y115000D01*
X115790Y89600D02*
X131030D01*
X34000Y112000D02*
Y148000D01*
Y112000D02*
X56000D01*
Y148000D01*
X34000D02*
X56000D01*
X87000Y12000D02*
Y19997D01*
X90999Y23996D01*
X94997Y19997D01*
Y12000D01*
Y17998D01*
X87000D01*
X98996Y23996D02*
Y12000D01*
Y15999D01*
X106994Y23996D01*
X100996Y17998D01*
X106994Y12000D01*
X110992Y23996D02*
Y15999D01*
X114991Y12000D01*
X118990Y15999D01*
Y23996D01*
X97000Y87000D02*
X104997D01*
X97000Y120999D02*
X104997D01*
X100999Y124997D02*
Y117000D01*
D11*
X180560Y111190D02*
X185638D01*
X183099D01*
Y126425D01*
X180560Y123886D01*
X5843Y127383D02*
X5843Y142618D01*
X13461Y142618D01*
X16000Y140078D01*
X16000Y135000D01*
X13461Y132461D01*
X5843Y132461D01*
X10921Y132461D02*
X16000Y127382D01*
X21078Y127382D02*
X26156Y127382D01*
X23617Y127382D01*
X23618Y142617D01*
X21079Y140078D01*
X127605Y151885D02*
X122526D01*
X125065D01*
Y139189D01*
X122526Y136650D01*
X119987D01*
X117448Y139189D01*
X132683Y136650D02*
X137761D01*
X135222D01*
Y151885D01*
X132683Y149346D01*
X6843Y62618D02*
Y47382D01*
X14461D01*
X17000Y49922D01*
Y60078D01*
X14461Y62618D01*
X6843D01*
X22078Y47382D02*
X27157D01*
X24618D01*
Y62618D01*
X22078Y60078D01*
D12*
X45000Y43000D02*
D03*
M02*
